<svg xmlns="http://www.w3.org/2000/svg" viewBox="0 0 240 180" role="img" aria-labelledby="roadrunner-title">
  <title id="roadrunner-title">Playful roadrunner illustration</title>
  <rect width="240" height="180" rx="18" fill="#fff2d8"/>
  <path d="M0 137c38-12 78-10 120 2 44 13 84 6 120-16v57H0z" fill="#efc878"/>
  <path d="M30 126l13-20 10 20M190 132l12-23 13 23" fill="#83a75b" stroke="#35412d" stroke-width="5" stroke-linecap="round" stroke-linejoin="round"/>
  <path d="M82 101c6-28 30-47 60-42 24 4 39 22 34 44-6 24-36 35-65 27-23-6-34-15-29-29z" fill="#9b7655" stroke="#302c28" stroke-width="5" stroke-linejoin="round"/>
  <path d="M91 97C70 79 51 69 26 66c18 12 31 25 42 42-17-5-32-5-47-1 25 16 48 22 76 17" fill="#6f5848" stroke="#302c28" stroke-width="5" stroke-linecap="round" stroke-linejoin="round"/>
  <path d="M145 65c-5-19 7-34 24-34 19 0 30 18 24 36-5 16-19 23-36 18" fill="#9b7655" stroke="#302c28" stroke-width="5" stroke-linejoin="round"/>
  <path d="M163 34l-8-20 16 15 6-20 5 22 17-13-10 21" fill="#6f5848" stroke="#302c28" stroke-width="5" stroke-linecap="round" stroke-linejoin="round"/>
  <path d="M190 53l36 10-35 10" fill="#e8b34c" stroke="#302c28" stroke-width="5" stroke-linejoin="round"/>
  <circle cx="178" cy="51" r="4" fill="#302c28"/>
  <path d="M119 130l-9 31M148 129l12 31M98 162h24M149 162h24" fill="none" stroke="#302c28" stroke-width="6" stroke-linecap="round"/>
  <path d="M105 86c17 8 32 10 47 5" fill="none" stroke="#d8b797" stroke-width="7" stroke-linecap="round"/>
</svg>
